<?xml version="1.0" encoding="utf-8"?>
<!-- Generator: Adobe Illustrator 28.4.1, SVG Export Plug-In . SVG Version: 6.00 Build 0)  -->
<svg version="1.1" id="Layer_1" xmlns="http://www.w3.org/2000/svg" xmlns:xlink="http://www.w3.org/1999/xlink" x="0px" y="0px"
	 viewBox="0 0 14 14" style="enable-background:new 0 0 14 14;" xml:space="preserve">
<g>
	<path d="M7,10.5c-0.23,0-0.46-0.09-0.62-0.26l-3.5-3.5C2.58,6.4,2.6,5.88,2.93,5.56c0.32-0.32,0.84-0.35,1.18-0.05L7,8.39
		l2.88-2.87c0.35-0.3,0.86-0.28,1.18,0.05c0.32,0.32,0.35,0.84,0.05,1.18l-3.5,3.5C7.45,10.41,7.23,10.5,7,10.5"/>
	<path d="M7,10.5c-0.48,0-0.88-0.39-0.88-0.88V0.88C6.12,0.39,6.52,0,7,0c0.48,0,0.88,0.39,0.88,0.88v8.75
		C7.88,10.11,7.48,10.5,7,10.5 M13.12,14H0.88C0.39,14,0,13.61,0,13.13c0-0.48,0.39-0.88,0.88-0.88h12.25
		c0.48,0,0.88,0.39,0.88,0.88C14,13.61,13.61,14,13.12,14"/>
</g>
</svg>
