<svg xmlns="http://www.w3.org/2000/svg" viewBox="2.9981138706207275 2 19.00188636779785 19.003477096557617"><g fill="currentColor"><path d="M4.5 4.12c-2.93 3.22-1.37 8.19 2.92 12.5 4.2 4.21 9.4 5.8 12.47 2.93 1.68-1.57 1.44-4.34-.64-6.19-1.88-1.6-4.83-1.87-6.72-.1-.63-.54-1.17-1.17-1.75-1.76 1.63-1.7 1.62-4.68-.06-6.68-1.88-2.25-4.74-2.33-6.22-.7zm4.85 1.85c1.05 1.27 1.2 3.29-.05 4.46-.63.57-1.25.9 1.03 3.22 2.45 2.5 2.76 1.62 3.4.95 1-1.01 2.97-1.1 4.32.1 1.5 1.33 1.33 2.87.62 3.53-2.22 2.07-6.47.64-9.97-2.88-3.5-3.52-5.06-7.61-2.87-10.02.5-.56 2.1-1.05 3.52.64zM18.5 2c.5 0 .9.4.9.9v1.7h1.7a.9.9 0 0 1 0 1.8h-1.7v1.7a.9.9 0 1 1-1.8 0V6.4h-1.7a.9.9 0 0 1 0-1.8h1.7V2.9c0-.5.4-.9.9-.9z"/></g></svg>