<svg xmlns="http://www.w3.org/2000/svg" viewBox="0 0 19.899999618530273 20"><g xmlns="http://www.w3.org/2000/svg" id="user-login"><path d="M18.5,13.5L15.7,17l-1.9-1.7l-1.4,1.5l3.4,3.2l4.1-5.2L18.5,13.5z"/><path d="M14.2,11c-0.9-0.4-1.8-0.7-2.8-0.8c2.1-0.6,3.7-2.6,3.7-5C15.2,2.3,12.8,0,10,0C7.1,0,4.8,2.3,4.8,5.2 c0,2.3,1.6,4.3,3.7,5C3.7,10.9,0,15,0,20h2c0-4.4,3.6-8,8-8c1.3,0,2.6,0.3,3.6,0.9L14.2,11L14.2,11z M6.8,5.2C6.8,3.4,8.2,2,10,2 c1.7,0,3.2,1.4,3.2,3.2c0,1.7-1.4,3.2-3.2,3.2C8.2,8.3,6.8,6.9,6.8,5.2z"/></g></svg>